<svg xmlns="http://www.w3.org/2000/svg" xmlns:v="https://svgstorm.com"
viewBox = "0 0 500 500"
width="500"
height="500">
<g fill="None" fill-opacity="0.0" stroke="#FEFEFE" stroke-opacity="1.00" stroke-width="0.3"><path d="
M 0.00 500.00 
L 500.00 500.00
L 500.00 0.00
L 0.00 0.00
L 0.00 500.00
M 252.00 143.00 
C 260.25 134.27 271.66 124.40 283.08 133.92 C 294.50 143.44 286.37 156.56 277.25 164.25 C 268.13 171.94 261.32 180.84 253.00 189.00
C 243.63 182.02 238.59 173.13 229.25 165.75 C 219.90 158.38 211.10 145.05 221.75 134.75 C 232.40 124.45 244.99 132.90 252.00 143.00
M 315.00 181.00 
C 325.76 208.22 286.36 218.67 268.00 221.00
C 287.16 213.83 301.93 195.39 315.00 181.00
M 241.00 270.00 
C 236.84 270.50 232.07 270.39 228.00 270.00
C 200.26 270.00 175.20 259.05 150.00 250.00
C 158.79 229.95 170.32 210.11 194.02 204.02 C 217.73 197.94 250.78 211.82 274.00 199.00
C 277.37 216.42 254.84 223.38 241.00 224.00
C 242.61 239.21 266.06 229.36 277.23 226.23 C 288.40 223.10 301.75 215.81 311.08 208.08 C 320.41 200.35 328.99 190.12 336.00 181.00
C 344.49 204.88 324.36 224.94 307.25 241.25 C 290.13 257.56 265.05 269.68 241.00 270.00
M 208.00 336.00 
C 206.35 326.41 206.32 313.52 208.00 304.00
C 209.65 313.59 209.68 326.48 208.00 336.00
M 256.00 321.00 
C 256.55 322.82 258.92 335.04 256.00 336.00
C 252.67 337.09 255.17 322.85 253.22 319.78 C 251.27 316.70 244.17 313.67 241.08 319.08 C 238.00 324.50 239.95 330.71 238.00 336.00
C 236.35 326.41 236.32 313.52 238.00 304.00
C 240.21 307.42 238.42 312.82 239.00 317.00
C 243.78 311.93 255.73 312.64 256.00 321.00
M 123.00 319.00 
C 127.27 317.00 136.20 321.66 140.00 319.00
C 143.05 315.95 138.98 309.03 142.00 306.00
C 143.65 314.93 143.68 327.15 142.00 336.00
C 139.78 332.25 141.59 326.51 141.00 322.00
C 135.00 322.00 129.00 322.00 123.00 322.00
C 121.89 326.27 125.37 334.12 121.00 336.00
C 118.72 335.25 120.00 323.36 120.00 321.00 C 120.00 318.64 118.71 306.75 121.00 306.00
C 124.92 304.72 121.90 317.42 123.00 319.00
M 274.00 318.00 
C 280.04 316.58 280.12 306.06 287.00 306.00
C 286.06 311.28 276.74 315.65 277.03 321.03 C 277.32 326.40 286.60 330.55 287.00 336.00
C 281.28 334.88 279.13 326.73 275.00 323.00
C 270.59 326.66 269.11 335.16 263.00 336.00
C 263.46 330.57 272.75 326.29 272.92 320.92 C 273.09 315.55 263.98 311.27 263.00 306.00
C 268.87 306.49 270.67 314.01 274.00 318.00
M 222.00 309.00 
C 219.68 315.86 227.14 312.79 230.00 315.00
C 228.23 317.03 224.52 315.53 222.00 316.00
C 222.22 322.78 219.36 335.21 230.00 334.00
C 227.73 338.80 220.31 334.87 220.03 329.97 C 219.74 325.08 222.80 314.22 215.00 316.00
C 217.45 314.16 220.02 311.39 222.00 309.00
M 374.00 309.00 
C 371.68 315.86 379.14 312.79 382.00 315.00
C 380.23 317.03 376.52 315.53 374.00 316.00
C 374.22 322.78 371.36 335.21 382.00 334.00
C 379.73 338.80 372.31 334.87 372.03 329.97 C 371.74 325.08 374.80 314.22 367.00 316.00
C 369.45 314.16 372.02 311.39 374.00 309.00
M 185.00 324.00 
C 188.12 323.13 192.22 322.58 196.00 323.00
C 197.69 320.30 193.13 316.23 189.97 316.03 C 186.82 315.82 182.66 318.28 180.00 320.00
C 189.24 303.01 204.17 322.53 198.00 336.00
C 194.67 331.25 189.67 337.63 183.33 335.67 C 176.99 333.71 177.67 323.34 185.00 324.00
M 173.00 326.00 
C 166.33 326.00 159.67 326.00 153.00 326.00
C 154.39 336.38 166.77 334.93 172.00 330.00
C 166.77 342.24 147.67 335.14 151.00 322.00 C 154.33 308.86 174.96 312.43 173.00 326.00
M 296.00 332.00 
C 295.36 336.17 297.29 341.66 295.00 345.00
C 292.69 335.58 294.65 324.18 294.00 314.00
C 296.09 320.86 304.79 310.29 311.22 314.78 C 317.65 319.26 318.62 326.37 314.25 332.25 C 309.87 338.12 300.62 337.08 296.00 332.00
M 344.00 326.00 
C 337.67 326.00 331.33 326.00 325.00 326.00
C 324.65 336.16 337.93 335.21 343.00 330.00
C 337.88 342.22 318.79 335.00 322.00 322.00 C 325.21 309.00 346.51 312.29 344.00 326.00
M 352.00 336.00 
C 349.62 335.22 351.30 327.47 351.00 325.00 C 350.70 322.53 350.41 315.92 352.00 314.00
C 354.03 313.36 354.06 315.69 354.00 317.00
C 356.65 315.15 361.24 312.48 364.00 315.00
C 351.11 314.68 356.00 330.20 352.00 336.00 Z"/>
</g>
<g fill="None" fill-opacity="0.0" stroke="#FF5A59" stroke-opacity="1.00" stroke-width="0.3"><path d="
M 252.00 143.00 
C 244.99 132.90 232.40 124.45 221.75 134.75 C 211.10 145.05 219.90 158.38 229.25 165.75 C 238.59 173.13 243.63 182.02 253.00 189.00
C 261.32 180.84 268.13 171.94 277.25 164.25 C 286.37 156.56 294.50 143.44 283.08 133.92 C 271.66 124.40 260.25 134.27 252.00 143.00
M 257.00 148.00 
C 255.52 153.59 258.42 156.41 264.00 155.00
C 264.00 158.00 264.00 161.00 264.00 164.00
C 258.41 162.52 255.59 165.42 257.00 171.00
C 254.00 171.00 251.00 171.00 248.00 171.00
C 249.48 165.41 246.58 162.59 241.00 164.00
C 241.00 161.00 241.00 158.00 241.00 155.00
C 246.59 156.48 249.41 153.58 248.00 148.00
C 251.00 148.00 254.00 148.00 257.00 148.00 Z"/>
</g>
<g fill="None" fill-opacity="0.0" stroke="#FFF7F7" stroke-opacity="1.00" stroke-width="0.3"><path d="
M 257.00 148.00 
C 254.00 148.00 251.00 148.00 248.00 148.00
C 249.41 153.58 246.59 156.48 241.00 155.00
C 241.00 158.00 241.00 161.00 241.00 164.00
C 246.58 162.59 249.48 165.41 248.00 171.00
C 251.00 171.00 254.00 171.00 257.00 171.00
C 255.59 165.42 258.41 162.52 264.00 164.00
C 264.00 161.00 264.00 158.00 264.00 155.00
C 258.42 156.41 255.52 153.59 257.00 148.00 Z"/>
</g>
<g fill="None" fill-opacity="0.0" stroke="#31C5E1" stroke-opacity="1.00" stroke-width="0.3"><path d="
M 315.00 181.00 
C 301.93 195.39 287.16 213.83 268.00 221.00
C 286.36 218.67 325.76 208.22 315.00 181.00 Z"/>
</g>
<g fill="None" fill-opacity="0.0" stroke="#17C0DF" stroke-opacity="1.00" stroke-width="0.3"><path d="
M 228.00 270.00 
C 232.33 270.00 236.67 270.09 241.00 270.00
C 265.05 269.68 290.13 257.56 307.25 241.25 C 324.36 224.94 344.49 204.88 336.00 181.00
C 328.99 190.12 320.41 200.35 311.08 208.08 C 301.75 215.81 288.40 223.10 277.23 226.23 C 266.06 229.36 242.61 239.21 241.00 224.00
C 254.84 223.38 277.37 216.42 274.00 199.00
C 250.78 211.82 217.73 197.94 194.02 204.02 C 170.32 210.11 158.79 229.95 150.00 250.00
C 175.20 259.05 200.26 270.00 228.00 270.00 Z"/>
</g>
<g fill="None" fill-opacity="0.0" stroke="#AAE9F3" stroke-opacity="1.00" stroke-width="0.3"><path d="
M 241.00 270.00 
C 236.67 270.09 232.33 270.00 228.00 270.00
C 232.07 270.39 236.84 270.50 241.00 270.00 Z"/>
</g>
<g fill="None" fill-opacity="0.0" stroke="#000000" stroke-opacity="1.00" stroke-width="0.3"><path d="
M 208.00 336.00 
C 209.68 326.48 209.65 313.59 208.00 304.00
C 206.32 313.52 206.35 326.41 208.00 336.00 Z"/>
</g>
<g fill="None" fill-opacity="0.0" stroke="#010101" stroke-opacity="1.00" stroke-width="0.3"><path d="
M 256.00 336.00 
C 255.38 331.10 256.82 325.86 256.00 321.00
C 255.73 312.64 243.78 311.93 239.00 317.00
C 238.42 312.82 240.21 307.42 238.00 304.00
C 236.32 313.52 236.35 326.41 238.00 336.00
C 239.95 330.71 238.00 324.50 241.08 319.08 C 244.17 313.67 251.27 316.70 253.22 319.78 C 255.17 322.85 252.67 337.09 256.00 336.00 Z"/>
</g>
<g fill="None" fill-opacity="0.0" stroke="#929292" stroke-opacity="1.00" stroke-width="0.3"><path d="
M 121.00 336.00 
C 121.00 326.00 121.00 316.00 121.00 306.00
C 118.71 306.75 120.00 318.64 120.00 321.00 C 120.00 323.36 118.72 335.25 121.00 336.00 Z"/>
</g>
<g fill="None" fill-opacity="0.0" stroke="#000000" stroke-opacity="1.00" stroke-width="0.3"><path d="
M 121.00 336.00 
C 125.37 334.12 121.89 326.27 123.00 322.00
C 129.00 322.00 135.00 322.00 141.00 322.00
C 141.59 326.51 139.78 332.25 142.00 336.00
C 143.68 327.15 143.65 314.93 142.00 306.00
C 138.98 309.03 143.05 315.95 140.00 319.00
C 138.19 320.81 124.53 321.19 123.00 319.00
C 121.90 317.42 124.92 304.72 121.00 306.00
C 121.00 316.00 121.00 326.00 121.00 336.00 Z"/>
</g>
<g fill="None" fill-opacity="0.0" stroke="#0B0B0B" stroke-opacity="1.00" stroke-width="0.3"><path d="
M 274.00 318.00 
C 270.67 314.01 268.87 306.49 263.00 306.00
C 263.98 311.27 273.09 315.55 272.92 320.92 C 272.75 326.29 263.46 330.57 263.00 336.00
C 269.11 335.16 270.59 326.66 275.00 323.00
C 279.13 326.73 281.28 334.88 287.00 336.00
C 286.60 330.55 277.32 326.40 277.03 321.03 C 276.74 315.65 286.06 311.28 287.00 306.00
C 280.12 306.06 280.04 316.58 274.00 318.00 Z"/>
</g>
<g fill="None" fill-opacity="0.0" stroke="#000000" stroke-opacity="1.00" stroke-width="0.3"><path d="
M 222.00 309.00 
C 220.02 311.39 217.45 314.16 215.00 316.00
C 222.80 314.22 219.74 325.08 220.03 329.97 C 220.31 334.87 227.73 338.80 230.00 334.00
C 219.36 335.21 222.22 322.78 222.00 316.00
C 224.52 315.53 228.23 317.03 230.00 315.00
C 227.14 312.79 219.68 315.86 222.00 309.00 Z"/>
</g>
<g fill="None" fill-opacity="0.0" stroke="#000000" stroke-opacity="1.00" stroke-width="0.3"><path d="
M 374.00 309.00 
C 372.02 311.39 369.45 314.16 367.00 316.00
C 374.80 314.22 371.74 325.08 372.03 329.97 C 372.31 334.87 379.73 338.80 382.00 334.00
C 371.36 335.21 374.22 322.78 374.00 316.00
C 376.52 315.53 380.23 317.03 382.00 315.00
C 379.14 312.79 371.68 315.86 374.00 309.00 Z"/>
</g>
<g fill="None" fill-opacity="0.0" stroke="#040404" stroke-opacity="1.00" stroke-width="0.3"><path d="
M 196.00 323.00 
C 194.49 325.41 187.62 323.61 185.00 324.00
C 177.67 323.34 176.99 333.71 183.33 335.67 C 189.67 337.63 194.67 331.25 198.00 336.00
C 204.17 322.53 189.24 303.01 180.00 320.00
C 182.66 318.28 186.82 315.82 189.97 316.03 C 193.13 316.23 197.69 320.30 196.00 323.00
M 196.00 326.00 
C 198.01 329.21 191.23 334.93 187.00 334.00 C 182.77 333.06 177.60 329.01 185.00 326.00
C 186.97 325.20 194.40 323.43 196.00 326.00 Z"/>
</g>
<g fill="None" fill-opacity="0.0" stroke="#060606" stroke-opacity="1.00" stroke-width="0.3"><path d="
M 173.00 326.00 
C 174.96 312.43 154.33 308.86 151.00 322.00 C 147.67 335.14 166.77 342.24 172.00 330.00
C 166.77 334.93 154.39 336.38 153.00 326.00
C 159.67 326.00 166.33 326.00 173.00 326.00
M 171.00 324.00 
C 165.00 324.00 159.00 324.00 153.00 324.00
C 153.78 313.57 170.77 313.14 171.00 324.00 Z"/>
</g>
<g fill="None" fill-opacity="0.0" stroke="#050505" stroke-opacity="1.00" stroke-width="0.3"><path d="
M 296.00 332.00 
C 300.62 337.08 309.87 338.12 314.25 332.25 C 318.62 326.37 317.65 319.26 311.22 314.78 C 304.79 310.29 296.09 320.86 294.00 314.00
C 294.65 324.18 292.69 335.58 295.00 345.00
C 297.29 341.66 295.36 336.17 296.00 332.00
M 309.00 316.00 
C 319.74 319.06 312.67 338.93 301.78 333.22 C 290.89 327.51 298.02 312.87 309.00 316.00 Z"/>
</g>
<g fill="None" fill-opacity="0.0" stroke="#070707" stroke-opacity="1.00" stroke-width="0.3"><path d="
M 344.00 326.00 
C 346.51 312.29 325.21 309.00 322.00 322.00 C 318.79 335.00 337.88 342.22 343.00 330.00
C 337.93 335.21 324.65 336.16 325.00 326.00
C 331.33 326.00 337.67 326.00 344.00 326.00
M 342.00 324.00 
C 336.33 324.00 330.67 324.00 325.00 324.00
C 323.74 313.15 342.88 313.38 342.00 324.00 Z"/>
</g>
<g fill="None" fill-opacity="0.0" stroke="#686868" stroke-opacity="1.00" stroke-width="0.3"><path d="
M 352.00 336.00 
C 352.00 328.67 352.00 321.33 352.00 314.00
C 350.41 315.92 350.70 322.53 351.00 325.00 C 351.30 327.47 349.62 335.22 352.00 336.00 Z"/>
</g>
<g fill="None" fill-opacity="0.0" stroke="#0C0C0C" stroke-opacity="1.00" stroke-width="0.3"><path d="
M 352.00 336.00 
C 356.00 330.20 351.11 314.68 364.00 315.00
C 361.24 312.48 356.65 315.15 354.00 317.00
C 354.06 315.69 354.03 313.36 352.00 314.00
C 352.00 321.33 352.00 328.67 352.00 336.00 Z"/>
</g>
<g fill="None" fill-opacity="0.0" stroke="#EEEEEE" stroke-opacity="1.00" stroke-width="0.3"><path d="
M 171.00 324.00 
C 170.77 313.14 153.78 313.57 153.00 324.00
C 159.00 324.00 165.00 324.00 171.00 324.00 Z"/>
</g>
<g fill="None" fill-opacity="0.0" stroke="#FAFAFA" stroke-opacity="1.00" stroke-width="0.3"><path d="
M 309.00 316.00 
C 298.02 312.87 290.89 327.51 301.78 333.22 C 312.67 338.93 319.74 319.06 309.00 316.00 Z"/>
</g>
<g fill="None" fill-opacity="0.0" stroke="#EFEFEF" stroke-opacity="1.00" stroke-width="0.3"><path d="
M 342.00 324.00 
C 342.88 313.38 323.74 313.15 325.00 324.00
C 330.67 324.00 336.33 324.00 342.00 324.00 Z"/>
</g>
<g fill="None" fill-opacity="0.0" stroke="#888888" stroke-opacity="1.00" stroke-width="0.3"><path d="
M 140.00 319.00 
C 136.20 321.66 127.27 317.00 123.00 319.00
C 124.53 321.19 138.19 320.81 140.00 319.00 Z"/>
</g>
<g fill="None" fill-opacity="0.0" stroke="#6C6C6C" stroke-opacity="1.00" stroke-width="0.3"><path d="
M 256.00 336.00 
C 258.92 335.04 256.55 322.82 256.00 321.00
C 256.82 325.86 255.38 331.10 256.00 336.00 Z"/>
</g>
<g fill="None" fill-opacity="0.0" stroke="#636363" stroke-opacity="1.00" stroke-width="0.3"><path d="
M 185.00 324.00 
C 187.62 323.61 194.49 325.41 196.00 323.00
C 192.22 322.58 188.12 323.13 185.00 324.00 Z"/>
</g>
<g fill="None" fill-opacity="0.0" stroke="#727272" stroke-opacity="1.00" stroke-width="0.3"><path d="
M 185.00 326.00 
C 188.45 325.13 192.50 326.65 196.00 326.00
C 194.40 323.43 186.97 325.20 185.00 326.00 Z"/>
</g>
<g fill="None" fill-opacity="0.0" stroke="#F5F5F5" stroke-opacity="1.00" stroke-width="0.3"><path d="
M 196.00 326.00 
C 192.50 326.65 188.45 325.13 185.00 326.00
C 177.60 329.01 182.77 333.06 187.00 334.00 C 191.23 334.93 198.01 329.21 196.00 326.00 Z"/>
</g>
<g fill="#FEFEFE" fill-opacity="1.00" stroke="None">
<path d="
M 0.00 500.00 
L 500.00 500.00
L 500.00 0.00
L 0.00 0.00
L 0.00 500.00
M 252.00 143.00 
C 260.25 134.27 271.66 124.40 283.08 133.92 C 294.50 143.44 286.37 156.56 277.25 164.25 C 268.13 171.94 261.32 180.84 253.00 189.00
C 243.63 182.02 238.59 173.13 229.25 165.75 C 219.90 158.38 211.10 145.05 221.75 134.75 C 232.40 124.45 244.99 132.90 252.00 143.00
M 315.00 181.00 
C 325.76 208.22 286.36 218.67 268.00 221.00
C 287.16 213.83 301.93 195.39 315.00 181.00
M 241.00 270.00 
C 236.84 270.50 232.07 270.39 228.00 270.00
C 200.26 270.00 175.20 259.05 150.00 250.00
C 158.79 229.95 170.32 210.11 194.02 204.02 C 217.73 197.94 250.78 211.82 274.00 199.00
C 277.37 216.42 254.84 223.38 241.00 224.00
C 242.61 239.21 266.06 229.36 277.23 226.23 C 288.40 223.10 301.75 215.81 311.08 208.08 C 320.41 200.35 328.99 190.12 336.00 181.00
C 344.49 204.88 324.36 224.94 307.25 241.25 C 290.13 257.56 265.05 269.68 241.00 270.00
M 208.00 336.00 
C 206.35 326.41 206.32 313.52 208.00 304.00
C 209.65 313.59 209.68 326.48 208.00 336.00
M 256.00 321.00 
C 256.55 322.82 258.92 335.04 256.00 336.00
C 252.67 337.09 255.17 322.85 253.22 319.78 C 251.27 316.70 244.17 313.67 241.08 319.08 C 238.00 324.50 239.95 330.71 238.00 336.00
C 236.35 326.41 236.32 313.52 238.00 304.00
C 240.21 307.42 238.42 312.82 239.00 317.00
C 243.78 311.93 255.73 312.64 256.00 321.00
M 123.00 319.00 
C 127.27 317.00 136.20 321.66 140.00 319.00
C 143.05 315.95 138.98 309.03 142.00 306.00
C 143.65 314.93 143.68 327.15 142.00 336.00
C 139.78 332.25 141.59 326.51 141.00 322.00
C 135.00 322.00 129.00 322.00 123.00 322.00
C 121.89 326.27 125.37 334.12 121.00 336.00
C 118.72 335.25 120.00 323.36 120.00 321.00 C 120.00 318.64 118.71 306.75 121.00 306.00
C 124.92 304.72 121.90 317.42 123.00 319.00
M 274.00 318.00 
C 280.04 316.58 280.12 306.06 287.00 306.00
C 286.06 311.28 276.74 315.65 277.03 321.03 C 277.32 326.40 286.60 330.55 287.00 336.00
C 281.28 334.88 279.13 326.73 275.00 323.00
C 270.59 326.66 269.11 335.16 263.00 336.00
C 263.46 330.57 272.75 326.29 272.92 320.92 C 273.09 315.55 263.98 311.27 263.00 306.00
C 268.87 306.49 270.67 314.01 274.00 318.00
M 222.00 309.00 
C 219.68 315.86 227.14 312.79 230.00 315.00
C 228.23 317.03 224.52 315.53 222.00 316.00
C 222.22 322.78 219.36 335.21 230.00 334.00
C 227.73 338.80 220.31 334.87 220.03 329.97 C 219.74 325.08 222.80 314.22 215.00 316.00
C 217.45 314.16 220.02 311.39 222.00 309.00
M 374.00 309.00 
C 371.68 315.86 379.14 312.79 382.00 315.00
C 380.23 317.03 376.52 315.53 374.00 316.00
C 374.22 322.78 371.36 335.21 382.00 334.00
C 379.73 338.80 372.31 334.87 372.03 329.97 C 371.74 325.08 374.80 314.22 367.00 316.00
C 369.45 314.16 372.02 311.39 374.00 309.00
M 185.00 324.00 
C 188.12 323.13 192.22 322.58 196.00 323.00
C 197.69 320.30 193.13 316.23 189.97 316.03 C 186.82 315.82 182.66 318.28 180.00 320.00
C 189.24 303.01 204.17 322.53 198.00 336.00
C 194.67 331.25 189.67 337.63 183.33 335.67 C 176.99 333.71 177.67 323.34 185.00 324.00
M 173.00 326.00 
C 166.33 326.00 159.67 326.00 153.00 326.00
C 154.39 336.38 166.77 334.93 172.00 330.00
C 166.77 342.24 147.67 335.14 151.00 322.00 C 154.33 308.86 174.96 312.43 173.00 326.00
M 296.00 332.00 
C 295.36 336.17 297.29 341.66 295.00 345.00
C 292.69 335.58 294.65 324.18 294.00 314.00
C 296.09 320.86 304.79 310.29 311.22 314.78 C 317.65 319.26 318.62 326.37 314.25 332.25 C 309.87 338.12 300.62 337.08 296.00 332.00
M 344.00 326.00 
C 337.67 326.00 331.33 326.00 325.00 326.00
C 324.65 336.16 337.93 335.21 343.00 330.00
C 337.88 342.22 318.79 335.00 322.00 322.00 C 325.21 309.00 346.51 312.29 344.00 326.00
M 352.00 336.00 
C 349.62 335.22 351.30 327.47 351.00 325.00 C 350.70 322.53 350.41 315.92 352.00 314.00
C 354.03 313.36 354.06 315.69 354.00 317.00
C 356.65 315.15 361.24 312.48 364.00 315.00
C 351.11 314.68 356.00 330.20 352.00 336.00 Z"/>
</g>
<g fill="#FF5A59" fill-opacity="1.00" stroke="None">
<path d="
M 252.00 143.00 
C 244.99 132.90 232.40 124.45 221.75 134.75 C 211.10 145.05 219.90 158.38 229.25 165.75 C 238.59 173.13 243.63 182.02 253.00 189.00
C 261.32 180.84 268.13 171.94 277.25 164.25 C 286.37 156.56 294.50 143.44 283.08 133.92 C 271.66 124.40 260.25 134.27 252.00 143.00
M 257.00 148.00 
C 255.52 153.59 258.42 156.41 264.00 155.00
C 264.00 158.00 264.00 161.00 264.00 164.00
C 258.41 162.52 255.59 165.42 257.00 171.00
C 254.00 171.00 251.00 171.00 248.00 171.00
C 249.48 165.41 246.58 162.59 241.00 164.00
C 241.00 161.00 241.00 158.00 241.00 155.00
C 246.59 156.48 249.41 153.58 248.00 148.00
C 251.00 148.00 254.00 148.00 257.00 148.00 Z"/>
</g>
<g fill="#FFF7F7" fill-opacity="1.00" stroke="None">
<path d="
M 257.00 148.00 
C 254.00 148.00 251.00 148.00 248.00 148.00
C 249.41 153.58 246.59 156.48 241.00 155.00
C 241.00 158.00 241.00 161.00 241.00 164.00
C 246.58 162.59 249.48 165.41 248.00 171.00
C 251.00 171.00 254.00 171.00 257.00 171.00
C 255.59 165.42 258.41 162.52 264.00 164.00
C 264.00 161.00 264.00 158.00 264.00 155.00
C 258.42 156.41 255.52 153.59 257.00 148.00 Z"/>
</g>
<g fill="#31C5E1" fill-opacity="1.00" stroke="None">
<path d="
M 315.00 181.00 
C 301.93 195.39 287.16 213.83 268.00 221.00
C 286.36 218.67 325.76 208.22 315.00 181.00 Z"/>
</g>
<g fill="#17C0DF" fill-opacity="1.00" stroke="None">
<path d="
M 228.00 270.00 
C 232.33 270.00 236.67 270.09 241.00 270.00
C 265.05 269.68 290.13 257.56 307.25 241.25 C 324.36 224.94 344.49 204.88 336.00 181.00
C 328.99 190.12 320.41 200.35 311.08 208.08 C 301.75 215.81 288.40 223.10 277.23 226.23 C 266.06 229.36 242.61 239.21 241.00 224.00
C 254.84 223.38 277.37 216.42 274.00 199.00
C 250.78 211.82 217.73 197.94 194.02 204.02 C 170.32 210.11 158.79 229.95 150.00 250.00
C 175.20 259.05 200.26 270.00 228.00 270.00 Z"/>
</g>
<g fill="#AAE9F3" fill-opacity="1.00" stroke="None">
<path d="
M 241.00 270.00 
C 236.67 270.09 232.33 270.00 228.00 270.00
C 232.07 270.39 236.84 270.50 241.00 270.00 Z"/>
</g>
<g fill="#000000" fill-opacity="1.00" stroke="None">
<path d="
M 208.00 336.00 
C 209.68 326.48 209.65 313.59 208.00 304.00
C 206.32 313.52 206.35 326.41 208.00 336.00 Z"/>
</g>
<g fill="#010101" fill-opacity="1.00" stroke="None">
<path d="
M 256.00 336.00 
C 255.38 331.10 256.82 325.86 256.00 321.00
C 255.73 312.64 243.78 311.93 239.00 317.00
C 238.42 312.82 240.21 307.42 238.00 304.00
C 236.32 313.52 236.35 326.41 238.00 336.00
C 239.95 330.71 238.00 324.50 241.08 319.08 C 244.17 313.67 251.27 316.70 253.22 319.78 C 255.17 322.85 252.67 337.09 256.00 336.00 Z"/>
</g>
<g fill="#929292" fill-opacity="1.00" stroke="None">
<path d="
M 121.00 336.00 
C 121.00 326.00 121.00 316.00 121.00 306.00
C 118.71 306.75 120.00 318.64 120.00 321.00 C 120.00 323.36 118.72 335.25 121.00 336.00 Z"/>
</g>
<g fill="#000000" fill-opacity="1.00" stroke="None">
<path d="
M 121.00 336.00 
C 125.37 334.12 121.89 326.27 123.00 322.00
C 129.00 322.00 135.00 322.00 141.00 322.00
C 141.59 326.51 139.78 332.25 142.00 336.00
C 143.68 327.15 143.65 314.93 142.00 306.00
C 138.98 309.03 143.05 315.95 140.00 319.00
C 138.19 320.81 124.53 321.19 123.00 319.00
C 121.90 317.42 124.92 304.72 121.00 306.00
C 121.00 316.00 121.00 326.00 121.00 336.00 Z"/>
</g>
<g fill="#0B0B0B" fill-opacity="1.00" stroke="None">
<path d="
M 274.00 318.00 
C 270.67 314.01 268.87 306.49 263.00 306.00
C 263.98 311.27 273.09 315.55 272.92 320.92 C 272.75 326.29 263.46 330.57 263.00 336.00
C 269.11 335.16 270.59 326.66 275.00 323.00
C 279.13 326.73 281.28 334.88 287.00 336.00
C 286.60 330.55 277.32 326.40 277.03 321.03 C 276.74 315.65 286.06 311.28 287.00 306.00
C 280.12 306.06 280.04 316.58 274.00 318.00 Z"/>
</g>
<g fill="#000000" fill-opacity="1.00" stroke="None">
<path d="
M 222.00 309.00 
C 220.02 311.39 217.45 314.16 215.00 316.00
C 222.80 314.22 219.74 325.08 220.03 329.97 C 220.31 334.87 227.73 338.80 230.00 334.00
C 219.36 335.21 222.22 322.78 222.00 316.00
C 224.52 315.53 228.23 317.03 230.00 315.00
C 227.14 312.79 219.68 315.86 222.00 309.00 Z"/>
</g>
<g fill="#000000" fill-opacity="1.00" stroke="None">
<path d="
M 374.00 309.00 
C 372.02 311.39 369.45 314.16 367.00 316.00
C 374.80 314.22 371.74 325.08 372.03 329.97 C 372.31 334.87 379.73 338.80 382.00 334.00
C 371.36 335.21 374.22 322.78 374.00 316.00
C 376.52 315.53 380.23 317.03 382.00 315.00
C 379.14 312.79 371.68 315.86 374.00 309.00 Z"/>
</g>
<g fill="#040404" fill-opacity="1.00" stroke="None">
<path d="
M 196.00 323.00 
C 194.49 325.41 187.62 323.61 185.00 324.00
C 177.67 323.34 176.99 333.71 183.33 335.67 C 189.67 337.63 194.67 331.25 198.00 336.00
C 204.17 322.53 189.24 303.01 180.00 320.00
C 182.66 318.28 186.82 315.82 189.97 316.03 C 193.13 316.23 197.69 320.30 196.00 323.00
M 196.00 326.00 
C 198.01 329.21 191.23 334.93 187.00 334.00 C 182.77 333.06 177.60 329.01 185.00 326.00
C 186.97 325.20 194.40 323.43 196.00 326.00 Z"/>
</g>
<g fill="#060606" fill-opacity="1.00" stroke="None">
<path d="
M 173.00 326.00 
C 174.96 312.43 154.33 308.86 151.00 322.00 C 147.67 335.14 166.77 342.24 172.00 330.00
C 166.77 334.93 154.39 336.38 153.00 326.00
C 159.67 326.00 166.33 326.00 173.00 326.00
M 171.00 324.00 
C 165.00 324.00 159.00 324.00 153.00 324.00
C 153.78 313.57 170.77 313.14 171.00 324.00 Z"/>
</g>
<g fill="#050505" fill-opacity="1.00" stroke="None">
<path d="
M 296.00 332.00 
C 300.62 337.08 309.87 338.12 314.25 332.25 C 318.62 326.37 317.65 319.26 311.22 314.78 C 304.79 310.29 296.09 320.86 294.00 314.00
C 294.65 324.18 292.69 335.58 295.00 345.00
C 297.29 341.66 295.36 336.17 296.00 332.00
M 309.00 316.00 
C 319.74 319.06 312.67 338.93 301.78 333.22 C 290.89 327.51 298.02 312.87 309.00 316.00 Z"/>
</g>
<g fill="#070707" fill-opacity="1.00" stroke="None">
<path d="
M 344.00 326.00 
C 346.51 312.29 325.21 309.00 322.00 322.00 C 318.79 335.00 337.88 342.22 343.00 330.00
C 337.93 335.21 324.65 336.16 325.00 326.00
C 331.33 326.00 337.67 326.00 344.00 326.00
M 342.00 324.00 
C 336.33 324.00 330.67 324.00 325.00 324.00
C 323.74 313.15 342.88 313.38 342.00 324.00 Z"/>
</g>
<g fill="#686868" fill-opacity="1.00" stroke="None">
<path d="
M 352.00 336.00 
C 352.00 328.67 352.00 321.33 352.00 314.00
C 350.41 315.92 350.70 322.53 351.00 325.00 C 351.30 327.47 349.62 335.22 352.00 336.00 Z"/>
</g>
<g fill="#0C0C0C" fill-opacity="1.00" stroke="None">
<path d="
M 352.00 336.00 
C 356.00 330.20 351.11 314.68 364.00 315.00
C 361.24 312.48 356.65 315.15 354.00 317.00
C 354.06 315.69 354.03 313.36 352.00 314.00
C 352.00 321.33 352.00 328.67 352.00 336.00 Z"/>
</g>
<g fill="#EEEEEE" fill-opacity="1.00" stroke="None">
<path d="
M 171.00 324.00 
C 170.77 313.14 153.78 313.57 153.00 324.00
C 159.00 324.00 165.00 324.00 171.00 324.00 Z"/>
</g>
<g fill="#FAFAFA" fill-opacity="1.00" stroke="None">
<path d="
M 309.00 316.00 
C 298.02 312.87 290.89 327.51 301.78 333.22 C 312.67 338.93 319.74 319.06 309.00 316.00 Z"/>
</g>
<g fill="#EFEFEF" fill-opacity="1.00" stroke="None">
<path d="
M 342.00 324.00 
C 342.88 313.38 323.74 313.15 325.00 324.00
C 330.67 324.00 336.33 324.00 342.00 324.00 Z"/>
</g>
<g fill="#888888" fill-opacity="1.00" stroke="None">
<path d="
M 140.00 319.00 
C 136.20 321.66 127.27 317.00 123.00 319.00
C 124.53 321.19 138.19 320.81 140.00 319.00 Z"/>
</g>
<g fill="#6C6C6C" fill-opacity="1.00" stroke="None">
<path d="
M 256.00 336.00 
C 258.92 335.04 256.55 322.82 256.00 321.00
C 256.82 325.86 255.38 331.10 256.00 336.00 Z"/>
</g>
<g fill="#636363" fill-opacity="1.00" stroke="None">
<path d="
M 185.00 324.00 
C 187.62 323.61 194.49 325.41 196.00 323.00
C 192.22 322.58 188.12 323.13 185.00 324.00 Z"/>
</g>
<g fill="#727272" fill-opacity="1.00" stroke="None">
<path d="
M 185.00 326.00 
C 188.45 325.13 192.50 326.65 196.00 326.00
C 194.40 323.43 186.97 325.20 185.00 326.00 Z"/>
</g>
<g fill="#F5F5F5" fill-opacity="1.00" stroke="None">
<path d="
M 196.00 326.00 
C 192.50 326.65 188.45 325.13 185.00 326.00
C 177.60 329.01 182.77 333.06 187.00 334.00 C 191.23 334.93 198.01 329.21 196.00 326.00 Z"/>
</g>
</svg>